<?xml version="1.0" encoding="utf-8"?>
<!-- Generator: Adobe Illustrator 19.0.0, SVG Export Plug-In . SVG Version: 6.00 Build 0)  -->
<svg version="1.1" id="Слой_1" xmlns="http://www.w3.org/2000/svg" xmlns:xlink="http://www.w3.org/1999/xlink" x="0px" y="0px"
	 viewBox="0 0 576 576" style="enable-background:new 0 0 576 576;" xml:space="preserve">
<g id="XMLID_6_">
	<path stroke="#fff" stroke-width="1px" fill="#fff" id="XMLID_8_" d="M195.6,307.5c-1.2,2.6-2,5.7-2.1,8.6c1.2-2.6,2.5-5.1,4-7.5c0.8-1.3,1.9-2.4,3-3.5c1.2-1.3,2.2-2.7,3-4.2
		c3.1-5.5,4.6-12.3,4.7-18.6c-2.8,6-4.5,12.6-8,18.3C198.8,303,196.8,304.9,195.6,307.5z"/>
	<path stroke="#fff" stroke-width="1px" fill="#fff" id="XMLID_60_" d="M201,306.8c-0.8,2-1.3,4.1-1.5,6.3c-0.3,2.6-0.2,5.3-0.7,7.9c-1,4.9-4.1,8.5-6.5,12.8c4-2.4,7.6-6,9-10.4
		c0.9-3,0.8-6,0.5-9.1C201.5,311.8,201.4,309.3,201,306.8z"/>
	<path stroke="#fff" stroke-width="1px" fill="#fff" id="XMLID_61_" d="M198.3,294.7c2.9-5.3,2-11.8,3.4-17.5c1.3-5.1,4.6-9.1,7.1-13.7c-2.3,1.5-4.5,3.3-6.4,5.4
		c-2,2.1-3.5,4.6-4.4,7.3c-1,2.9-1.3,6.1-1.4,9.2c-0.1,2.8,0,5.8-0.9,8.5c-0.7,2.4-2.2,4.4-3.7,6.4
		C194.7,299,196.9,297.2,198.3,294.7z"/>
	<path stroke="#fff" stroke-width="1px" fill="#fff" id="XMLID_68_" d="M450,141.5c-5.6-4.3-11.3-6.3-15.1-7.2c-1.1-0.9-3.1-1.5-5.4-1.5c-2,0-3.7,0.5-4.9,1.2
		c-3.9,0.9-12.4,3.2-18.1,7.5c-4.2,3.2-4.2,5.5-3.4,6.8c0.9,1.5,2.9,2.2,5.2,2.2c0.3,0,0.7,0,1-0.1c-0.2,1.1-0.3,2.1-0.1,3
		c0.5,2,2.2,3.2,4.6,3.4c0.2,0,0.3,0,0.5,0c2.2,0,4.5-1.1,6.7-3.1c0.2,2.9,1.3,5.8,3,7.4c-7.2,23.2-22.2,49-27,56.5
		c-2.8,4.3-5.6,9.7-7.9,14.6c-0.1,0-0.3,0-0.4,0l-3-4.7c8.7-6.9,14.4-27.4,14.4-27.4s-9.2,6.8-14.5,20.1c0.5-8.1,1.7-20.1,4.5-30.8
		c0.9,1.7,2,2.9,3.4,3.5c0.4,0.2,1.1,0.4,1.8,0.4c1.2,0,2.7-0.4,4.4-2c1.6-1.5,2.4-3.8,2.6-6.3c1.9,1.2,4.1,1.9,6.2,1.9
		c1.4,0,2.7-0.3,3.8-0.9c1.1-0.6,4.3-3.2,0.9-9.4c-4.1-7.5-10.3-12.1-14.8-14.2c-0.5-1.1-3.2-2-6.5-2c-3.6,0-6.5,1.1-6.5,2.4
		c0,0,0,0.1,0,0.1c-13.1,8-19.7,15.5-17.3,19.9c0.8,1.4,2.4,2.2,4.4,2.2c1,0,2.1-0.2,3.3-0.5c-0.2,2,0,3.7,0.6,5
		c0.8,1.8,2.3,2.7,4.1,2.7c0.1,0,0.3,0,0.4,0c2.2-0.2,4.5-1.6,6.5-4.3c-2.1,7.8-3.4,16.2-4.1,23.5c-2.7-6.3-7.7-12.1-7.7-12.1
		s0.2,13.5,7.2,18.1c-0.1,2.1-0.3,3.9-0.3,5.6c-1.4-1.8-3.1-3.7-5-5.8c-6.8-7.7-15.3-17.3-19.5-29.7c-3-8.9-0.6-21.2,6.3-31.3
		c4.9-7.2,11-11.7,16.3-12.2c5.3-0.4,8.3-7.5,8.1-13.9c-0.2-7-4.1-11.3-10.2-11.4c-3.3,0-6.7,0.5-10.2,1.5c2.2-2.1,4-3.6,5.6-4.9
		c18.7,6.2,20.7-12.4,8.6-7.4c0.4-0.4,0.9-0.9,1.4-1.3c1.1-1.1,2.1-2.3,3-3.4c19.5,5.6,19.6-16.7,3.2-5.3c0.9-1.9,1.6-3.7,2-5.3
		c0.6-1.9,2.1-3.5,4-4.2c17.6-6.1,10-16.4,2.5-12.1c0.8-7.4-8-7.7-10-0.3c-5.8-11.2-17.8,1.9-1.7,11c2,1.1,2.8,3.4,2.2,5.5
		c-1.1,3.4-3.2,8-7.2,11.9c-0.5,0.5-1.1,1-1.5,1.5c4.8-23.2-20.1-13.4-3.8,3.4c-0.9,0.7-1.7,1.4-2.5,2.1c-3.1,2.6-6.4,5.2-12.8,11.6
		c-4.4,2.2-8.7,5.3-12.5,9c0.8-2.9,1.5-6.1,1.6-9.5c20.7-5.1,7.6-25.3-0.2-4.9c-0.2-1.9-0.6-4-1.3-6c-0.5-1.7-0.1-3.6,1.1-5
		c12.1-13.9,0.3-19.1-4.1-11.7c-3.1-6.8-11-2.8-8.8,4.7c-11-7-14.6,11,5.3,10.4c1.7-0.1,3.1,1,3.6,2.6c1.1,3.7,1.5,7.2,1.3,10.5
		c-25.7-12.1-20.8,15.8-0.3,3.2c-0.7,5-2.5,9.2-3.9,12.5c-3.3,4.6-6,10-7.8,16l-1.4,5c-3.4,12.1-5.5,19.5-7.7,20.6
		c-0.3,0.2-0.9,0.3-2.3-0.1c-1-0.3-1.5-1.5-1.8-2.5c-0.4-1.1-0.6-2.1-0.8-3.2c-1-7.5-0.3-15.2,0.5-22.7c0.1-0.7,0.2-1.4,0.3-2.1
		c0.2-1.1,0.3-2.2,0.5-3.2c0.2-1,0.4-2,0.1-3c-0.4-1.1-1.4-1.8-2.4-2.5c-1.1-0.8-2.4-1.5-3.7-2c-2.4-1-5-1.4-7.5-1.1
		c-5,0.5-9,3.3-11.3,5.4c3.1-13.5,16.6-30.9,23.6-39.9c0.7-0.9,1.4-1.8,2-2.6c7.7-10,8.1-20.4,8.4-29.5l0-0.1
		c0.1-2.4,0.2-4.7,0.4-7.1c0.5-6.8,0.9-13.9-0.1-22.3c-0.3-2.8-0.4-4.8-0.6-6.6c-0.3-5.4-0.5-8.2-5.7-16.8c-2-3.2-3.8-4.9-5.9-5.1
		c-2.6-0.3-4.4,1.5-6,3.1c-2,2-2.9,2.8-4.3,2.3c-7.6-2.8-9.7,1.2-14.2,11.1c-3.3-6.4-6.8-9.5-13.5-9.5c-4.9,0-7.3-0.6-10.9-1.5
		c-1.6-0.4-3.4-0.9-5.7-1.3c-7.2-1.5-13.7,2.9-17.3,11.9c-1.1,2.7-1.8,2.6-4.7,2.6c-1.5,0-3.4-0.1-5.6,0.4c-1,0.2-2.3,0.9-3.2,3
		c-1.1,2.5-1.3,6.6-0.8,11.8c-2.8,1-5.2,1.6-7.3,2.2c-4.9,1.2-8.5,2.1-12,7.1c-3.6,5.1-4,6.7-4.8,11.1c-0.2,1.4-0.5,3.1-1,5.5
		c-2.2,10,7.3,31.1,15.6,34.7c3.5,1.5,6.8,4.2,10.3,7.1c3.4,2.8,7,5.7,10.8,7.5c1.7,0.8,3.9,1.8,6.4,3c8.7,4.1,20.6,9.7,25.5,11.5
		c7.6,2.8,14.7,14,17.5,20.8c-0.1,7.2,0,17.1,0.5,26.6c0.5,9.3-1.4,13.5-3.5,14.3c-1.4,0.6-3-0.4-4.1-1.5
		c-6.4-6.7-10.5-23.6-7.7-32.3c2.5-7.7-0.6-23.8-0.8-24.4c-0.1-0.7-0.7-1.3-1.4-1.5c-4.8-1.2-9.9-1.7-14.8-0.5
		c-3.1,0.8-6,2.3-8.3,4.5c-1.2,1.1-2.9,2.8-3.3,4.4c-0.3,1.2,0.2,2.5,0.4,3.8c0.2,1,0.4,2.1,0.6,3.1c0.5,2.7,0.9,5.4,1.4,8.1
		c0.3,1.9,0.6,3.8,0.9,5.6c0.1,0.9,0.3,2.1,0.6,3.4c0.9,5.4,2.3,14,3,22.7c0,0,0,0,0-0.1c-2.5-5.6-5.7-9.6-9.2-11.5
		c2.2-4.4-2.5-9.2-14.1,0.3c1.1-3.2,2.2-7.1,2.9-11.4c20-2.9,11-24,0.9-6.1c0.4-3.9,0.5-8,0.1-12.2c-0.2-2.3,1.1-4.4,3.1-5.5
		c16.2-8,7.5-17.1,0.6-12.1c-0.1-7.5-8.9-6.8-10,0.9c-6.9-10.3-17.1,3.4-1.3,10.7c2.6,1.2,4.5,3.7,4.7,6.6c0.2,2.9,0.2,5.7,0.1,8.4
		c-13.7-20.7-21.2,3.2-0.4,4.3c-0.8,7.1-2.6,13.2-4.2,17.6c-1.2-4.5-2.6-7.4-4.1-9.1c8-10.4-7.8-19-9.3,1.4
		c-1.6-3.1-3.4-6.2-5.5-9.1c20.1-14.7-4.5-28.7-2.5-3.4c-2.5-3.3-5.3-6.4-8.4-9.4c16.7-18.8-10.9-27.4-3-2.8
		c-2.7-2.4-5.6-4.7-8.6-6.9c-2.1-1.5-3.2-4-2.8-6.6c2.7-16.9-9.7-15.5-9.7-7.1c-6.2-4.4-10.9,2.9-5.2,8.3
		c-12.7-0.7-7.4,15.5,8.3,7.4c2.6-1.3,5.7-1.1,8,0.5c3.2,2.3,6.3,4.8,9.1,7.5c-22.1-8.2-16.2,17.4,4.1,4.1c2.9,3.1,5.5,6.4,7.9,9.8
		c-25-12.3-20.1,16.6,2.2,3.4c2.8,4.4,5,9,6.8,13.8c-23.8-19-24.7,12.4,1.3,3.8c2.2,7.1,3.3,14.3,3.1,21.5c-0.9,1.6-1.9,3.3-2.8,4.9
		c0.1-9.5-2-18.2-2.2-18.6l-0.1-0.5l-0.4-0.4c-8.3-8.7-20.2-4.2-25.3-0.6l-0.9,0.6l0.1,1.1c2,21.2-1.5,51.7-5.9,68.9
		c-1.5,1.8-3.1,3.6-4.9,5.6c-2.4,2.7-4.9,5.6-7.5,8.6c2.5-8.6,3.8-17.9,3.9-26.8c13.6-21.3,11.4-37.9,11.4-37.9s-7.7,12.7-11.6,28.5
		c-0.4-5.5-1.2-10.6-2.3-15c-0.5-17.9-12.7-45.6-12.7-45.6c-3.6,10.2-5.3,24.6,9.1,43.9c2.3,7.4,3.5,17.2,3.1,27.5
		c-2.6-11.8-13.1-24.9-13.1-24.9s-0.7,21.8,12.6,31.9c-0.7,7-2.1,14-4.3,20.6c-1,2.8-2.3,5.5-4.1,8c-0.9,1.2-1.7,2.5-2.6,3.8
		c0.6-6,1.7-9.7,2.6-13.1c1.4-4.9,2.6-9.1,1.6-17.9c-0.6-5-2.8-9.4-6.3-12.8c-8.8-14.8-15.5-17.9-29.2-9.9c0,0,4-1.3,9.3-0.5
		c2.7,0.4,4.4,2,6.1,4c-7-0.9-13.7,1.1-18,5.7c-1.8,1.8-3.8,4.9-4.6,9.6c-4.1,12.5-3.4,19.7,7.2,27.4c0,0,3.1-9.3-2.4-21.1
		c-2-4.3-1.7-9.5,1.4-13.2c0.2-0.2,0.4-0.5,0.6-0.7c4.3-4.5,11.7-6.1,18.8-4.1c0.9,1,1.9,2.1,3.1,3.1c3.4,2.9,6.5,4.4,8.3,5.1
		c1.4,2.3,2.4,4.9,2.7,7.7c0.5,4.3,0.5,7.4,0.1,10.1c-1.7-12.5-6.1-23.7-22.4-14.5c0,0,7.3-1,11.3,0.3c3.6,1.2,4.3,5.3,4.2,10.5
		c-0.1,6.2,3.6,9.9,5.1,11.1c-1,3.4-2,7.4-2.6,13.8c-0.3,3.2-1.1,6.4-2.5,9.4c-2,4.5-3.3,9-3.6,13.7c-1.3,17.6,4.6,39.6,8.1,52.7
		c0.6,2.2,1.1,4.2,1.5,5.7c1.1,4.3,2.8,7.3,4.5,10.1c2.4,4.1,4.7,8,5,16.3c0.5,15.4,11.5,35.3,16.7,39.4
		c4.1,3.2,12.3,23.7,17.2,35.9c0.6,1.5,1.1,2.8,1.7,4.1c0.6,1.6,1.3,3.2,1.9,4.9c5.2,13.2,11.2,28.1,19,36.1c2.9,3,5.6,5.5,8,7.8
		c4.6,4.3,8.5,8.1,12.4,13.4c5.2,7.1,18.3,18.7,31.4,18.7c3.7,0,7.4-0.9,10.8-3.1c6.8-4.3,11.5-6.4,15.2-8c4.4-1.9,7.9-3.5,12-7.2
		c4.6-4.2,8.1-12.5,11.9-21.3c2.8-6.5,5.6-13.2,9-18.5l0.6-1c7.6-12.1,13.7-21.6,21.5-42.6c5.7-15.3,11.5-23.8,17.2-32.1
		c2.2-3.2,4.2-6.2,6.2-9.4c6.1-10.2,5.3-18.1,4.4-28.2c-0.1-0.6-0.1-1.3-0.2-1.9c0.6-0.9,1.1-1.8,1.6-2.6c4.6-7.4,7.2-11.4,9.4-23.3
		c1.2-6.5,1.2-9.7,1.1-13.2c-0.1-3.6-0.1-7.3,1.4-15.5c1.8-9.9,1.2-20.1-2.5-33.1c1,0,2-0.1,3-0.1c1.7-0.1,3.5,0.1,5.2-0.1
		c4.2-0.4,5.6-4.7,5.3-8.2c-0.2-3.2-1.8-6.4-4.5-7.7c1.8-3.6,0.6-9.1-1.1-12.7c0.7-0.3,1.5-0.8,2.2-1.6c3.8-3.6,8.4-12.2,7.9-22.6
		c16.5,5.9,22.4,17.7,22.4,17.7s-7-18.9-21-23.2c13.2,2.3,19.8-4,19.8-4s-9.9-3-23.5,0l-0.6-0.1c-0.1,0-3.2-0.8-7.3-1.8
		c14.1-0.6,13.7-13.8,13.7-13.8s-2.3,4.4-14.2,9.1c-3.8,1.5-5.8,2.3-7.2,2.7c-2.8-0.8-5.5-1.5-7.2-2c-0.5-0.2-0.9-0.3-1.3-0.4
		c2.1-4.5,4.6-9.3,7.1-13.2c2.3-1.6,6.1-4.2,12.1-8.1c12.7-8.4,24.2-31.3,24.2-31.3s-2.7,4.9-13.2,12.3c-7.1,5.1-8.9,5-13.1,9.9
		c6-11.3,13.1-26,17.5-40c0.1,0,0.3,0,0.4,0c1.4,0,3.2-0.7,5-3.5c0.9-1.4,1.6-2.9,2-4.4c2.2,1.5,5,2.6,7.3,2.6c0.4,0,0.8,0,1.2-0.1
		c1.5-0.3,2.6-1.2,3-2.4c0.1-0.2,0.1-0.3,0.1-0.5c0.2,0,0.3,0,0.5,0c2.9,0,6-1.2,7.4-3.5C454.7,149,455.4,145.7,450,141.5z
		 M410.5,178c0.9,1.6,2,4.4,0.2,5.5c-2,1.2-6.1,0.4-8.4-2.2c-0.1-1.2-0.2-2.4-0.4-3.5c-0.7-4.3-2.3-9.2-4.2-12.6
		C401.5,167.2,406.9,171.3,410.5,178z M393.4,165c0.2,0,0.4,0,0.6-0.1c1.6,2.3,3.9,7.5,4.9,13.3c0.9,5.2,0.4,9.2-1.4,10.9
		c-1.1,1-2.1,1.4-2.9,1.1c-1.7-0.7-3.4-4.5-3.3-9.6C393.3,175.7,394.2,170,393.4,165z M376.4,181.1c-3.3,1.3-5.3,1-5.7,0.3
		c-0.8-1.4,1.6-6.4,12.7-13.8C379.9,172.1,377.5,176.9,376.4,181.1z M385.2,185.9c-1.5,2-3.1,3.2-4.5,3.3c-0.5,0-1.1-0.1-1.5-1
		c-1.7-3.8,1.7-14.9,10.7-23.2c0.2,0,0.4,0,0.5,0.1C391.8,171.9,388.8,181.2,385.2,185.9z M381.3,123.3c2.8,1.5,3.3,5.2,3.4,6.9
		c0.2,4.4-1.6,8.4-3.5,9.5C378.9,136.2,377.6,128.7,381.3,123.3z M309.3,141.7c3.1-0.3,6.2,0.7,9.2,3c-1.8,2.1-6.8,3.8-11.6,4.1
		c-3.3,0.2-6.2-0.4-7.8-1.6C300.7,145.6,304.5,142.2,309.3,141.7z M298.7,151.4c1.9,0.9,4.4,1.3,7.1,1.3c0.4,0,0.9,0,1.4,0
		c3.4-0.2,7.5-1.1,10.7-2.7c-1.6,11.8-3,31.4,4.6,33.9c1.4,0.5,3.4,0.9,5.4-0.1c3.7-1.9,5.4-7.7,9.7-23l1.4-5
		c6.4-22.4,25.6-32.7,38.1-33.2c-0.4,0.8-0.8,1.6-1.1,2.4c-3.4,0.4-6.6,1.4-9.7,3.2c-3.2,1.9-6.2,4.5-8.4,7.6
		c2.6-2.6,5.8-4.5,9.2-5.8c2.6-1,5.2-1.4,7.9-1.3c-0.3,1.9-0.3,3.7,0,5.5c-4.3,1.1-8.3,2.9-11.8,5.7c-4,3.2-6.9,7.3-9.5,11.5
		c3.1-3.7,6.4-7.3,10.6-9.9c3.6-2.2,7.4-3.4,11.5-3.8c0.3,1.1,0.8,2.1,1.2,3.1c-5.6,1.6-11.5,6.4-16.1,13.3
		c-6,8.8-10.9,22.6-6.8,34.7c0.4,1.2,0.8,2.3,1.3,3.4c-2.6-3.3-5.2-7-6.2-10c-2.3-7.1-7.7-15.1-7.7-15.1c-1.5,14.1,3.7,22,17.9,33.2
		c4.2,7.1,9.3,13.1,13.9,18.3c-2.3-0.6-4.2-2.1-9.2-5.9c-6.8-5.3-12.7-5.2-12.7-5.2s5.8,12,13.8,13.9c4.5,1.1,7.2,0.1,10.2-0.3
		c2.6,2.9,4.8,5.5,6.1,7.7l2.1,3.3c-1.1-0.1-2.6-0.3-4.5-0.6c-10.4-1.6-20.9-1.4-31.3,0.2c-4.3,0.6-9.7,0.9-14.9,1.1
		c-5.3,0.2-10,0.4-12.7,1c7.1-9.1,10.5-17.5,12.1-24c3.1-13.1-0.1-21.8-0.2-22.2l-0.8-2.2l-2.1,1.3c-8.6,5.2-23.3,14-35.5,28.5
		c1.6-6.3,2.9-12.5,3.9-18.4c1-2.8,1.7-6.8,1.3-12.8C298.4,171.3,298.5,158.1,298.7,151.4z M371.6,234.4c-1.7,0.6-3.4,1.3-5,2
		c-3.9,1.6-7.5,3.2-10.3,3.2c-4.2,0-7.3-1.5-11.4-3.5c-0.2-0.1-0.4-0.2-0.7-0.3c0.6-0.1,1.2-0.1,1.8-0.2
		C354.1,234.7,363.2,234,371.6,234.4z M272.3,314.4c-0.7-4.7-1-9.4-1.3-14.1c-0.4-6-1-11.9-1.8-17.9c-0.8-5.8-1.8-11.6-2.9-17.3
		c-0.5-2.7-1.1-5.3-1.8-7.9c-0.6-2-1-4.5-2.3-6.3c1.3,2.1,1.7,5,2.2,7.4c0.6,3,1.1,6,1.5,9c1.7,11.9,2.6,23.8,2.8,35.7
		c0.1,5.9,0.4,11.8,1.5,17.6c0.2,1.4,0.5,2.8,0.8,4.3c-0.9-1.9-1.7-3.8-2.4-5.8c-3-8-5.1-16.4-6.9-24.8c-1.3-6-2.4-12-3.2-18.1
		c0.2,3.1,0.5,6.2,0.8,9.3c1.2,10.8,2.8,21.8,5.8,32.3c-15.8-31.4-17.5-65-2.9-85.6c3.5,9.4,13.1,36.1,13.9,49.6
		c0.4,6.2-0.7,12.8-1.9,19.8C273.5,305.7,272.8,310,272.3,314.4z M278.1,302.2c1.2-7.2,2.4-14,2-20.6c-0.2-3.4-0.9-7.6-2-12
		c4.2-3.7,9.3-7.6,15.1-11.6c-3.6,7.7-6.7,18.2-9.8,29.2c-1.6,5.9-3.1,11-4,12.6L278.1,302.2C278.1,302.2,278.1,302.2,278.1,302.2z
		 M329.2,191.1c1.5,7.4,3.2,30.8-27.4,55.7c-1,0.5-1.9,1.3-2.8,2.2c-2.1,1.6-4.3,3.2-6.7,4.8c-2.9,2-5.7,4-8.3,5.9
		c9.3-10.7,18.6-21.5,27.1-32.8c-1.9,2.2-3.9,4.3-5.8,6.4c-8.2,8.8-16.6,17.4-25.2,25.9c0.8-1.6,1.6-3.1,2.5-4.6
		c4.1-7.4,8.4-14.7,13-21.9c3.5-5.3,7.1-10.6,11.1-15.5c-1.9,2-3.7,4.1-5.5,6.2c-8.3,10-15.7,20.6-22.6,31.5
		C285.6,218.9,313.4,200.7,329.2,191.1z M287.4,288.2c3.6-13.1,9.7-35,16.7-38.2c1.3-0.6,2.5-1.2,3.5-1.8c0.9,0.7,1.6,2.1,1.9,3.9
		c0.5,3.6-0.6,9.1-4.4,12.8c-3.7,3.6-5,7-6.4,10.5c-1.1,2.9-2.3,5.8-4.9,9.5c-2.6,3.6-5.6,6.9-8.1,9.4
		C286.2,292.4,286.8,290.4,287.4,288.2z M298.5,32.2c1.9-4.2,3.2-6.9,4.2-8.5c1.1,2,2.1,4,2.8,6.2c1.1,3.4,2.4,6.7,3.3,10.2
		c0.5,2.2,0.8,4.3,0.9,6.6c0.2,3.6,0.2,7.1,0,10.7c-0.1,2.7-0.5,5.3-0.4,8c0.2-3.2,0.9-6.4,1.3-9.6c0.7-5.7,1.3-11.6,0.1-17.3
		c-0.8-3.6-1.6-7.3-2.5-10.8c-0.6-2.1-1.4-4.1-2.3-6.1c0.6,0.1,1.3,0.3,2.2,0.6c3.9,1.5,6.7-1.3,8.6-3.2c0.2-0.2,0.4-0.4,0.6-0.6
		c0.2,0.4,0.5,0.8,0.7,1.3c0.7,1.6,0.9,3.4,1.1,5.1c0.4,3.1,1.2,6,2.5,8.8c-0.5-3.4-0.5-6.5,0-9.9c0.2-1.6,0.2-3.1,0.1-4.6
		c0.2,0.3,0.4,0.6,0.7,1c4.7,7.8,4.9,9.8,5.2,15.1c0.1,1.8,0.2,4,0.6,6.9c1,8.1,0.5,15,0.1,21.6c-0.2,2.4-0.3,4.8-0.4,7.3l0,0.1
		c-0.3,9-0.7,18.3-7.6,27.3c-0.6,0.8-1.2,1.6-2,2.6c-2.9,3.8-6.7,8.6-10.3,13.9c0.6-1.6,1.3-3.1,2.1-4.7c2.1-4.5,4.6-8.8,7-13.2
		c-3.2,4.2-6.5,8.3-9.4,12.7c-0.4,0.6-0.8,1.2-1.2,1.8c1.2-3.7,2.7-7.4,4.5-10.8c2.1-4,4.5-7.7,6.3-11.8c1.8-4.1,3.3-8.3,4-12.7
		c0.5-2.8,0.6-5.6,0.2-8.4c-0.2-1.3-0.5-2.5-0.6-3.8c-0.1-1.3,0.1-2.2,0.7-3.4c1.9-4.2,1.5-9.3,1.4-13.8c-0.1,3-0.2,6.1-0.7,9.1
		c-0.3,1.6-0.7,3.2-1.5,4.7c-0.9,1.7-0.9,3.3-0.7,5.1c0.4,3.4,0.4,6.7-0.4,10.1c-0.7,3.2-1.8,6.3-3.2,9.3c-1.4,3.1-3,6.1-4.8,8.9
		c-1.8,2.9-3.7,5.7-5.3,8.7c-2.5,4.8-4.4,10-6.1,15.1c0.2-1.2,0.4-2.4,0.6-3.6c2.2-13.5,4.4-27.4,3.7-35.8c-0.2-1.8-0.3-3.6-0.5-5.4
		c-1.2-13.9-2.4-28.2-6-37.3c-0.2-0.4-0.3-0.8-0.5-1.2L298.5,32.2z M279.1,131.4c-3.4-2.1-6.7-4.2-10-6.5c-4.4-3-8.8-6.1-12.2-10.1
		c-3.4-4.1-7.8-7-11.8-10.5c-3.3-2.9-6.2-6.1-9-9.4c3,4,6.2,7.9,9.8,11.4c2,1.9,4.1,3.7,6,5.6c1.9,1.9,3.3,4.1,5,6.1
		c3.5,4,7.8,7.4,12,10.7c0,0,0,0,0,0c-5-2.3-10.8-5-15.6-7.3c-2.5-1.2-4.7-2.2-6.4-3c-3.4-1.6-6.7-4.3-10-7
		c-3.6-2.9-7.2-5.9-11.2-7.6c-5.7-2.5-12.8-17-13.5-26.3c1.3,3.2,3.3,5.9,6.4,7.7c2,1.2,4.2,1.8,6.2,2.9c3.1,1.7,5.5,4.2,7.7,6.8
		c1.9,2.3,3.7,4.7,6.4,6.2c-2.7-1.9-4.4-4.9-6.3-7.5c-2-2.8-4.3-5.3-7.3-7.2c-1.6-1-3.5-1.8-5.1-2.9c-2.3-1.6-3.8-3.9-4.8-6.4
		c-1.1-2.8-2.1-6.2-1.9-9.2c0.2-3.7,2-6.7,4.1-9.7c0.9-1.2,1.7-2.1,2.6-2.8c1,1.5,2,3.1,3.1,4.5c1.9,2.6,3.6,5.4,5.2,8.2
		c2.5,4.3,6.2,8.6,10.8,10.8c-4.5-3.1-7.3-8.1-9.2-13c-1.6-4.3-3.9-8.3-5.7-12.5c0.9-0.3,1.8-0.5,2.9-0.8c1.9-0.5,4.2-1.1,6.9-2
		c1.9,11.4,7.1,26.2,14.9,38.7c5.3,8.5,12.5,16.8,19.5,24.8c4.1,4.7,8.2,9.3,11.8,13.9c-5.5-4.4-10.8-9.1-16-13.8
		C269.1,120.3,273.9,126,279.1,131.4z M291,106.4c-0.8-2.8-1.6-5.6-2.1-8.4c-0.5-2.8-0.6-5.7-0.7-8.6c-0.1-5.6,0.1-11.1-0.4-16.6
		c-0.4-4.1-0.9-8.4-2.3-12.3c1.3,4.5,1.5,9.4,1.6,14.1c0,5.7-0.6,11.5-0.7,17.2c0,2.9,0,5.7,0.4,8.6c0.4,2.8,1.1,5.6,1.7,8.4
		c0.6,2.8,1.3,5.6,1.8,8.3c-1.7-3.5-3.4-7-5.2-10.5c-1.3-2.6-2.6-5.2-3.5-8c-0.7-2.3-1-4.6-1.3-6.9c-0.1,2.7,0.1,5.4,0.6,8.1
		c1.3,5.9,4,11.5,6,17.2c0.3,1,0.6,2,1,3c-3-4.5-6.7-8.6-10.5-12.5c-1.8-2-3-4.3-4-6.7c-1.6-3.8-2.9-7.7-4.1-11.7
		c-1.3-3.8-2.5-7.7-4.4-11.3c-3-5.6-7.2-10.9-11.7-15.5c4.1,4.8,7.9,10.1,10.6,15.7c3,6.3,4.1,13.4,6.2,20.1
		c1.3,4.2,2.8,8.4,5.7,11.8c4.1,4.7,6.4,11.2,9.2,16.8c0.4,0.9,0.9,1.9,1.3,2.9c-4.3-5.9-9.4-11.6-14.4-17.3
		c-6.9-7.9-14.1-16.1-19.2-24.3c-12.2-19.5-16.8-42.3-14.7-50c0.3-1.1,0.6-1.5,0.7-1.5c1.3-0.3,2.5-0.3,3.6-0.3c0.4,0,0.7,0,1.1,0
		c0.8,0,1.5,0,2.3,0c2.5-0.2,4.9,0.8,6.2,2.9l0,0c1.4,2.2,2.1,4.8,3.2,7.1c1.4,2.9,2.9,5.8,4.5,8.6c0.3,0.5,0.6,1,1,1.5
		c0.4,0.6,0.9,1.4,1.6,1.8c-0.5-0.4-0.9-1.1-1.2-1.7c-0.5-1.1-1-2.3-1.5-3.4c-1.1-2.8-2-5.7-2.9-8.5c-0.8-2.5-1.1-5.3-2.4-7.6
		c-0.8-1.4-2-2.6-3.3-3.8c0.3-0.5,0.7-1.2,1-1.9c1.1-2.6,5.1-11.1,12.7-9.5c0.5,0.1,1,0.2,1.4,0.3c3.2,0.7,6.1,2.3,8.2,4.7
		c0,0,0,0,0,0c2,2.2,2.6,4.8,3.2,7.6c0.6,2.8,0.8,5.4,0.6,8.3c-0.4,5.6-1.3,11.1-0.3,16.7c-0.1-3.1,0.2-6.2,0.7-9.2
		c0.6-3.2,1.4-6.3,1.9-9.5c0.4-3,0.2-6-0.2-9c-0.4-2.7-1.4-5.1-2.8-7.2c1.4,0.1,2.9,0.2,4.7,0.2c5.8,0,8.4,2.7,12.5,13
		c3.4,8.6,4.6,22.7,5.7,36.2c0.2,1.8,0.3,3.6,0.5,5.4c0.7,7.9-1.5,21.6-3.7,34.8c-0.5,3.2-1,6.3-1.5,9.2
		C294.3,117.2,292.6,111.8,291,106.4z M274.6,141.8c-2.7,3.1-11.3,7.4-19.2,5.7C256.9,145.2,262.1,139.3,274.6,141.8z M259.2,151.8
		c6.5,0,13-2.6,16.8-5.8c0.8,5.6,1.3,13.3,0.1,17.3c-3.2,10,1.1,28.3,8.6,36.1c2.4,2.5,5.4,3.4,8,2.6c-1.5,7.4-3.3,15.1-5.9,22.4
		c-5.7,8.7-10.2,19.1-12.4,31.4c-4.3-14.1-9.4-27.3-9.8-28.2l-1.2-3.2l-2.2,2.6c-10.3,12.3-14.7,30.4-12.6,50.9
		c1.9,18.3,9.2,37.6,20.6,55.1c-2.6-1.2-5.4-2-8.2-2.6c-4.9-0.9-9.9-1.1-14.9-0.6c-1.6,0.1-3.2,0.3-4.7,0.6c2.4-3.1,4.6-5.7,8.6-7.5
		c-4.6,0.9-9.3,4.5-13.3,7.7c-0.9,0.7-2,1.3-3.1,1.6c-0.6,0.2-1.2,0.4-1.7,0.6c-2.7,0.9-5.3,2.2-7.6,3.8c-2.2,1.5-4.1,3.5-6,5.3
		c-2.3,2-4.6,4.2-7.2,5.9c-2.4,1.6-5.4,3.6-9.1,6.3c-4.8,3.4-7,7.3-9.4,11.4c-2.1,3.6-4.3,7.4-8.5,11.6c-2.3,2.3-4,4.2-5.3,6
		c4.2-10.3,8.7-20.4,15.4-29.8c8.7-12.2,29.1-16.5,36.2-29.7c1.6-2.9,2.3-6.7,1.7-9.4c-1.1,6.8-5.2,11-10.8,14.8
		c-0.5,0.3-1,0.7-1.5,1c1.5-2.1,3.1-4.2,4.5-6.3c2-2.9,4.1-6,5.2-9.4c1.7-4.9,0.9-10.2-0.4-15.1c-0.9-3.6-2.3-7.1-3.6-10.6
		c5.7-30.2,29.1-65.1,34.1-69.3c1.8-1.5,2.6-4.6,2.6-8.3c1.5-13.2-1.5-31.4-3-40.7c-0.2-1.3-0.4-2.5-0.5-3.4
		c-0.8-5.3-1.9-11.4-2.6-15.5C257,151.7,258.1,151.8,259.2,151.8z M254.3,195.2c3.9,8.7,4.4,18.2,2.9,20.8c-2.9-0.2-6.6-3-10.1-7.7
		c-5.7-7.6-8.9-17.4-7.2-21.7c2.5,0,4.6-0.6,6.1-1.5C250.1,186.8,253.1,192.4,254.3,195.2z M219.9,180.2c0.2-0.1,0.4-0.2,0.5-0.3
		c1.1,2.8,3.9,5.7,9.1,7.7c-0.4,1-0.8,1.8-1.1,2.4c-1.5,3.2-2.5,6.4-3.2,9.3C224.4,192.8,222.6,186.4,219.9,180.2z M231.1,191.3
		c0.6-1.2,1.5-3.2,2.5-5.7c0.6,0.2,1.2,0.3,1.8,0.5c-2.2,4.9-4.7,9.9-7.4,14.9C228.6,197.9,229.5,194.5,231.1,191.3z M195.2,197.8
		c2.9-1.7,12-6.3,18.7,0.3c0.6,2.6,3.2,15,1.2,25.1c-1,1.7-2.1,3.3-3.1,5c0-0.5,0-1,0-1.4c-0.1-3.5-0.3-7-1.1-10.4
		c0.1,3.3-0.3,6.6-0.8,9.9c-0.4,2.5-0.9,5-1.6,7.4c-1.2,1.9-2.4,3.7-3.6,5.5c0.1-4.2,0-8.3-0.6-12.4c-0.4,6.3-1.7,12.5-3.6,18.5
		c-0.6,0.9-1.2,1.7-1.8,2.6c0.3-4,0.1-8-0.3-11.9c-0.6,6.2-1.7,12.7-4.4,18.4c-1.2,1.6-2.3,3.1-3.3,4.5
		C194.4,241.1,196.7,216.2,195.2,197.8z M174.5,370.8c1.6-6.3,5.5-11.6,6.3-18.3c-1.2,6.6-5.7,11.4-8.1,17.5c-0.3,0.7-0.5,1.3-0.7,2
		c0.2-6.8,0.7-13.5,0.6-20.4c-0.1-8.2-3.1-16.2-3-24.3c-0.6,8,1.8,16.1,1.4,24.3c-0.5,9.8-2.3,19-2.5,28.7c-0.7-1.4-1.3-3-1.7-4.8
		c-0.4-1.6-0.9-3.5-1.5-5.8c-3.2-12.1-9.2-34.5-7.9-51.5c0-0.2,0-0.4,0.1-0.7c0.2,0.3,0.4,0.6,0.6,0.9c1,1.4,2.3,2.8,4,3.8
		c1.6,1,3.5,1.8,5.5,2.1c2,0.3,4.1,0.2,6-0.4c2.9-0.9,5.5-2.7,7.4-4.9c1.6-1.8,3.1-4.2,3.3-6.6c0.2-1.6-0.1-3.2-0.8-4.4
		c-0.9-1.5-2.1-2.8-3.5-3.8c-0.2-0.2-3.5-2.1-3.6-1.8c0.1-0.2,3.1,1.8,3.4,2c1.3,1.1,2.3,2.3,3,3.9c0.6,1.2,0.7,2.6,0.4,4
		c-0.3,2.1-1.9,4.1-3.4,5.6c-1.8,1.8-4.2,3.3-6.8,3.8c-1.6,0.3-3.3,0.3-4.8-0.1c-1.5-0.4-2.9-1.1-4.1-2c-1.2-0.9-2.1-2-2.7-3.2
		c-1.1-1.8-1.5-3.8-1.5-5.7c0-2.1,0.6-4.2,1.5-6.2c0.8-1.7,1.7-3.4,2.7-5.1c1.7-2.9,3.7-5.5,6.1-7.8c1.6-1.6,3.3-3.2,5.1-4.7
		c3.3-2.8,6.9-5.1,10.5-7.6c3.6-2.4,6.9-5.1,9.9-8.1c4.6-4.7,8.7-10.1,12.1-15.7c-1.7,2.3-3.6,4.6-5.6,6.7c-2.8,3.2-5.9,6.2-9.2,8.8
		c-3.3,2.6-6.9,4.8-10.6,6.8c-1.5,0.8-2.9,1.7-4.4,2.5c1.9-2.2,3.8-4.4,5.6-6.5c2.7-3.1,5.3-6.1,7.5-8.7
		c10.9-13.6,31.6-43.6,45.1-71.2c1.2,5.5,4.2,11.7,7.8,16.5c2.1,2.9,5.9,7.2,10.4,8.7c-7.8,9.8-24.3,38.1-30.7,63.2
		c-0.8-3-1.3-6-1.6-9.1c-0.4-4.2-0.4-8.4,0.1-12.6c0.2-2,0.6-3.9,1-5.8c0.2-0.9,0.4-1.8,0.7-2.7c0.1-0.4,0.5-1-0.1-1.1
		c-2.1,2.5-3.5,5.6-4.4,8.7c-2.1,6.7-2.2,13.8-0.3,20.6c0.9,3.4,2.3,6.7,4.1,9.8c1.8,3,3.8,5.8,4.8,9.2c0.8,2.4,0.9,5,0.5,7.3
		c-0.8,4.6-3.2,8.9-5.3,13c-1.2,2.3-2.9,5-4.2,7.7c0.1-0.4,0.2-0.9,0.3-1.3c0.6-3,1.2-6.1,1.4-9.2c0.2-3.2-0.2-6.3-1-9.4
		c-0.7-2.9-1.6-5.7-2.4-8.5c-0.6-2.2-1.3-4.4-1.5-6.7c0.2,6.9,2.9,13.7,2.8,20.6c-0.1,4.3-1.3,9.8-2.8,15c-1.1,3.9-3.5,7.4-6.7,10
		c-3.6,2.8-7.1,5.9-10.7,9.4c-6.3,6.4-10.9,15-16.1,22.3c-4.3,6-6.6,11.5-8,18C173.7,381.9,173.3,375.4,174.5,370.8z M381.6,417.7
		c-1.9,3.2-3.9,6.1-6,9.2c-5.5,8.1-11.7,17.2-17.6,32.9c-1.4,3.7-2.7,7-4,10.1c-1.1-5.2-3.6-10.1-7.4-14.1c0.3,0.4,0.5,0.8,0.8,1.2
		c4.8,7.7,4.9,17.4,0.7,25.4c-3.7,7.1-7.3,12.8-11.4,19.3l-0.6,1c-3.5,5.6-6.4,12.4-9.2,19c-3.6,8.4-7,16.4-10.9,20
		c-3.4,3.1-6.3,4.5-10,6.1c1.4-1.3,2.8-2.6,4.1-4.2c7.9-9.4,13.5-27.3,9.2-38.8c3.4,11.3-3,28.5-11.2,37c-3.1,3.4-6.8,5.6-10,8.6
		c-1.7,1.6-3.6,3-5.6,4.2c-1,0.6-2,1.2-3.1,1.9l0,0c-2.2,1.4-4.9,1.7-7.4,0.8c-1.7-0.6-3.4-1.3-5-2c-2.7-1.2-4.4-2.1-6.2-4.5
		c-1.4-1.9-4-6.7-4-6.7c2,8,5.4,11.5,10.9,14.6c-3.3-0.5-6.6-1.8-9.6-3.6c-3.8-2.1-7.1-5-9.5-8.5c-1.7-2.4-2.9-5.1-2.7-7.7
		c0-0.5,0.2-1.1,0.4-1.5c0.3-0.6,0.7-0.9,1.1-1.5c0.6-0.9,0.7-1.6,0.8-2.3c0.7-6.5-3.2-12.7-2.3-19.3c-0.4,3.2,0.2,6.3,0.7,9.4
		c0.5,3,1.3,6.5,0.2,9.5c-0.5,1.4-1.7,2.3-2.4,3.7c-1,2-1,4.1-0.5,6.3l0,0c-0.8-1-1.4-2.2-1.7-3.4c-2.7-11-2.6-23.8-6.5-34.2
		c2.5,9.9,1,19.6,1.8,29.5c-4.3-6.8-6.4-20-8-26.6c-2.9-12.1-4.9-24.4-3-37c-2.5,12.4-2.1,24.8,0.5,37c1.2,5.4,0.3,11.8,1.2,17.5
		c-1.8-1.7-3.7-3.6-5.8-5.7c-7.2-7.5-13-22-18.1-34.8c-0.7-1.7-1.3-3.3-2-4.9c-0.5-1.3-1.1-2.7-1.7-4.1c-2.8-7.1-5.5-13.7-8-19.4
		c-1-2.2-1.4-4.7-1.3-7.1c0.3-5.7,1-11.6-1.9-16.5c-1.7-3.1-4.8-5.3-8-6.8c2.7,1.8,5.6,4.5,6.7,7.4c1.8,4.3,1,9.2,0.2,14
		c-2.3-4.5-4.4-7.7-6.1-9.1c-3.8-2.9-12.8-18.6-14.8-32.2c-0.2-1.4-0.2-2.9-0.1-4.3c0-0.5,0.1-1,0.1-1.4c1.2-12.2,1.4-14.1,9.4-22
		c4.5-4.5,6.9-8.6,9-12.2c2.3-4,4.3-7.4,8.6-10.5c3.7-2.6,6.6-4.6,9-6.2c2-1.3,3.6-2.4,5-3.5c0,0.4-0.1,0.9-0.1,1.3
		c0.2,8.8,6.8,15.6,6.3,24.8c-0.4,7.6-3,15.6-4.1,23.2c-0.1,0.7-0.2,1.3-0.3,2c-4.9,6.5-7.8,14.3-8.3,22.3c1.4-5.8,4-11.4,7.8-16.1
		c-0.3,11,2.4,21.2,10.9,29.7c-6.2-14.6-7.9-23.6-5.7-38.8c0.7-4.6,1.8-9.6,2.5-14.5c5.1,6.3,7.8,13.4,8.7,21.7
		c0.7,6.7,0.3,13.1,4,19.3c-3.2-6.3-2.2-12.6-2.4-19.3c-0.3-9.7-3-18-8.7-25.7c-0.7-0.9-1-2.1-1-3.3c-0.1-9.6-8.3-16.3-8.5-25.3
		c-0.1-1.9,0.7-4.6,2-6.1c1.3-1.8,3.1-3.1,5-4c10.6-5,32.2-7.6,44.3-3.3c0.6,0.9,1.2,1.8,1.9,2.8c2.4,3.3,3.7,7.3,3.6,11.4
		c-0.2,12.5-9.2,24.2-7.7,36.8c-5.5,5.5-9.4,13-10.1,20.6c1.7-6.4,5.7-12.3,10.9-16.7c0.7,2.4,1.9,4.9,3.6,7.4
		c-1.2-1.7-3.1-16.3,1.5-25c3.6-6.9,4.9-13,5.6-19.1c0.2,9.6-1.4,19.4,0.5,29.2c0.6,3.2,1.3,6.4,2.1,9.6c-3.5,6.3-5,14-6.2,21.9
		c-1.9,1.9-4.1,2.5-6.5,4.1c-9.5,6.4-6.2,21.7-15.2,28.6c8.5-5.2,7.7-17.5,14.1-24.4c0.8-0.8,1.6-1.5,2.5-1.9c1.5-0.7,3-1.2,4.4-1.8
		c-1.1,7.6-2.3,15.2-5.3,21.5c-5,10.7-8.5,21.7-13,31.5c2.4-2,4.9-5.7,7.3-10c0.6,4.8,2,9.7,2.4,14.4c0.3-5.1-0.6-10.8-0.2-16.1
		c0.1-1.8,1-6.1,1.8-7.7c2.7-5.7,4.4-8.9,5.6-12.7c4.2-14.3,6.4-28.9,9.2-43.4c2.2,8.6,4.4,17.2,4.8,26.2
		c0.5,10.7-2.2,20.4-3.8,30.9c-0.9,5.7-1.1,11.2-0.8,16.7c-1.8,4.3-3.7,10.3-4.3,14.5c1.3-3,2.9-5.8,4.7-8.5
		c0.4,4.2,1.1,8.3,1.8,12.4c0.4,2.4,0.6,4.9,0.3,7.3c-0.7,5.9-2.2,11.6-4.7,17.2c2.9-4.4,5-9,6.6-13.8c3,13.8,6.2,27.5,5.6,41.7
		c3.5-8.7,3-19.3,1.2-29.7c1.3,2.1,2.7,4,4.3,5.5c1,0.9,2.2,1.5,3.4,1.8c-1.1-0.5-2.1-1.3-3-2.2c-2.9-3.6-4.4-9-6.3-13.9
		c-0.5-1.3-0.9-2.5-1.2-3.8c-1.1-4.5-2.2-8.7-3.2-12.5c-1-3.9-1.5-7.8-1.8-11.7c3.8,6.1,8.6,11.7,9.8,19.3
		c-0.3-10.6-7.9-18.1-9.9-27.9c0.3-8.6,1.5-17.3,2.3-26.1c1.3-14.3-0.9-28.3-3.2-42.3c1.4,2.2,3.2,4.2,5.1,6
		c6.7,6.3,8.3,7.1,11.5,15.8c1.6,4.4,4.9,9.9,9.1,14.5c1.3,2.1,2.4,4.2,3.2,6.4c1.1,2.9,1.5,6,1.3,9.1c-0.5,8.2-0.8,17.4,0.5,25
		c-0.2-5.5,0.5-11.8,1.5-18c0.8,8.2,1,16.6,3,24.1c-2.5-13,0.3-28.1-3.6-41.4c3.8,2.6,7.9,4,12.2,3.4c-13.8-7-20-16.1-27.3-28.8
		c-4.9-8.5-12-15.5-17.8-23.5c-0.6-3.5-1.1-7-1.6-10.5c-0.9-6.5-0.5-12.9-0.6-19.2c5,4.5,7.2,11.3,9.9,17.2
		c-1.9-7.3-4.7-17.5-10.2-23.4c-0.4-4.9-1.4-9.6-3.8-14.3c3.3,0.6,6.6,0.9,9.7,0.9c15.6,0,28.1-7.1,36.4-14c0.1,0.1,0.1,0.2,0.2,0.3
		c2.2,3.9,6.2,6,8.9,7c2.9,1.1,5.2,3.3,6.3,6.1c2.2,5.3,2.6,12.3,4.5,16.7c4.1,9.7,12.8,12,17.8,20.4c-4.1-8.5-12.3-11.7-15.4-21.2
		c-2-6.3-1.4-14.1-4.3-20.2c2.1,0.4,4.6,1.1,7.5,2.2c5.2,2,8,2.8,9.7,3.3c0.5,0.1,1.1,0.3,1.3,0.4c0.1,0.1,0.2,0.4,0.3,0.6
		c0.3,0.5,0.6,1.3,1.2,2.3c0.5,0.9,1,1.6,1.5,2.2c1.8,3.6,2.3,7.6,1.9,11.8c1.1-2.9,1.6-5.9,1.6-8.9c0.3,0.2,0.6,0.4,0.9,0.5
		c1.8,1,3.4,2,5.2,4.9c1.7,2.8,1.5,4.8,1.3,7.6c-0.2,2.8-0.5,6.3,1.4,11c-0.6,2-0.9,4.3-0.7,6.8c0.5,6.7-0.3,10.2-5.4,21.5
		c-4.1,9.2-3.4,14.8-2.9,15.7c0,0,0.9-9.2,5.3-15.8c6.5-9.8,7.5-13.8,7-21.6c-0.2-3.6,0.9-6.9,2-9.1c1.3,2.7,3,7.6,3.5,15.2
		c0.1,1.4,0.2,2.7,0.3,4c0.1,0.9,0.2,1.7,0.3,2.6C386.3,401.5,387,408.5,381.6,417.7z M283.2,328c13.6-14.4,30.8-19.8,48-14.6
		c-5.2,6.3-22.6,24.5-47.9,22c6.6-2.6,12.9-5.8,18.8-9.6c-6.6,3-13.6,5.3-20.7,7c7.5-6.1,16.1-11,25.3-13.9
		C298.5,320.6,290.5,323.8,283.2,328z M398.8,334.2c-1.6,8.6-1.5,12.5-1.5,16.3c0.1,3.2,0.1,6.3-1,12.4c-1.9,10.2-3.9,13.9-7.7,20.1
		c-1.3-12.6-5.6-17.9-5.8-18.1l-1.6-1.9l-1.5,2c-0.1,0.1-0.5,0.7-1.1,1.7c-0.2-1.7-0.1-3.3,0-4.7c0.2-3,0.5-6-1.9-9.9
		c-2.3-3.8-4.6-5.1-6.6-6.2c-1.7-1-3-1.8-4.4-4.1c-0.5-0.9-0.8-1.6-1.1-2.1c-1-2.1-1.5-2.4-4.1-3.1c-1.6-0.5-4.3-1.2-9.3-3.2
		c-5.9-2.3-10.3-2.8-13.5-3.2c-4.8-0.6-6.8-0.8-9.7-5.9c-0.2-0.4-0.4-0.7-0.6-1.1c5.5-5,8.5-9.3,8.6-9.4l1.4-2l-2.4-0.9
		c-3.1-1.1-6.3-1.9-9.4-2.4c0.1-1.5,0.2-2.9,0.2-4.4c0.3-5.4,0.7-10.9-0.3-15.6c-0.2-1-0.1-2,0.3-2.9c1.1-2.5,3.8-4,6.5-3.4
		c0.2,0,0.4,0.1,0.6,0.1c2.9,0.9,5.3,3.5,8.1,4.7c1.4,0.6,2.8,0.8,4.3,0.9c8,0.8,8.8,9.4,2.9,13.6c6.4-3.1,7-9.8,3.2-14.1
		c2.8-0.3,5.6-0.3,8,1.1c3.7,2.2,9.7,9.5,11.7,13.4c2.2,4.2,1.5,10.8,0.3,15.2c1.6-4.7,2.8-10.9,0.7-15.7
		c-1.8-4.2-7.4-12.2-11.4-14.9c-5.5-3.8-12.7,0.1-18.2-2.8c-2.4-1.9-4.9-3.6-7.5-5.1c2.5-1.1,6.9-2.6,9.4-3.4
		c1.9-0.6,3.9-0.5,5.6,0.3c0.8,0.4,1.7,0.9,2.7,1.4c3.5,1.8,8-0.6,11.7,1.3c0.2,0.1,0.5,0.4,0.5,0.4s0-0.3-0.4-0.6
		c-3.2-2.2-7.6-0.9-10.5-3.1c-1-0.7-1.9-1.5-2.8-2.1c0.1,0,0.2-0.1,0.2-0.1c2.3-1.2,3.3-2.8,4.1-4c1-1.5,1.7-2.7,5.2-3.6
		c3.6-1,10,1.2,15.7,3.1c2,0.7,4,1.3,5.9,1.9c0.8,4.6-0.5,9.4-1.9,13.9c-0.7,2.3-1.5,4.7-2,7.1c-2,9.3,2.8,18.2,1.9,27.5
		c-0.5,4.8-3.2,9.8-5.9,13.7c3.1-4,6.1-8.6,7-13.6c0.1-0.3,0.1-0.7,0.2-1c1-7.9-3.2-17.1-1-23.8c0.3-0.9,0.8-1.6,1.3-2.4
		c2-3,3.6-6.7,4.4-10.2c0.2-0.8,0.4-1.7,0.5-2.5c4.3,10,7.4,18.6,9.4,26.1c1.2,4.4,1.6,9,1.1,13.5c-0.3,2.7-0.9,5.4-1.9,7.7
		c-2.5,6-7.4,10.4-9,16.9c2.8-7.8,9.6-12.4,12.6-20C399.8,326.6,399.5,330.4,398.8,334.2z M406.2,282.5c-0.4,2.5-1.6,2.5-2.2,2.6
		c0,0-0.1,0-0.1,0c-2.5,0-3.1-3-3.3-4.7c-0.3-4,1.2-7.4,2.1-7.9c0.1,0,0.3,0.1,0.4,0.1C404.5,273.6,406.8,278.6,406.2,282.5z
		 M396.6,280.6c0.2,1.9,0.6,3.6,1.4,4.9l-3.4-0.3c-1.8-4.5-3.8-9.2-6.1-14.3c0.6,0.1,1.1,0.1,1.7,0.1c3.2,0.1,5.9,0.3,8.2,0.6
		C397,274.2,396.4,277.8,396.6,280.6z M396.2,289.3l5.2,0.4c-0.7,2.6-0.5,5.7,0.7,8.1l-2.9,0.1C398.3,295.2,397.3,292.3,396.2,289.3
		z M408.3,297.7L408.3,297.7l-1.1,0c-0.4-0.1-0.9-0.4-1.3-1c-1.2-1.7-1.4-4.8-0.5-6.6c0.5-1,1-1,1.2-1h0c0,0,0.1,0,0.1,0
		c2,0,2.9,2.7,3.1,4.6C410,295.4,409.4,297.4,408.3,297.7z M413.4,242.6c2.8,10.5-0.9,18.9-2.8,22c-1.7,3-3.4,4.5-4,4.8
		c-0.6-0.2-1.2-0.4-1.9-0.5c-0.8-0.4-1.5-0.5-2.1-0.5c-3.4-0.7-7.5-1.1-12.3-1.2c-3.1-0.1-7.7-1.6-12.1-3.1
		c-6.5-2.2-13.3-4.4-18-3.2c-5,1.3-6.4,3.5-7.6,5.3c-0.7,1.1-1.2,1.9-2.6,2.7c-0.8,0.5-3,1.1-5.3,1.9c-9.4,3-25.1,8-23,18.2
		c0.9,4.2,0.5,9.3,0.2,14.6c-0.1,1.4-0.2,2.8-0.2,4.1c-16.8-1.3-33,6.5-45.5,22.3c-1-8.2,0-16.2,1.2-23.9l5-3.9
		c0.3-0.3,8.5-6.6,14.6-15.2c2.9-4,4.2-7.4,5.3-10.3c1.3-3.4,2.4-6.1,5.5-9.1c4.8-4.7,6.2-11.4,5.6-16.1c-0.3-2.3-1.2-4.2-2.4-5.5
		c2.8-2,4.7-4,6.2-5.6c1.5-1.5,2.5-2.6,3.6-3c2-0.6,7.3-0.8,12.4-1.1c1.6-0.1,3.2-0.1,4.8-0.2c2,0.9,3.8,1.7,5.5,2.5
		c4.2,2,7.9,3.8,12.7,3.8c3.4,0,7.3-1.7,11.5-3.4c3.6-1.5,7.6-3.2,11.6-3.9c4.8,0.7,6.8,0.8,8.1,0.8c1.3,0,1.8,0,4.6,1
		C397.3,238.6,409.6,241.6,413.4,242.6z M405.7,146.9c-0.1-0.2,0.1-1.2,2.6-3.1c2.7-2,6.1-3.6,9.3-4.8c-3.2,2.7-5.6,5.6-7.1,8.3
		C408.2,147.9,406,147.5,405.7,146.9z M419,151.6c-1.2,1.1-3.1,2.5-5,2.4c-1.6-0.1-1.8-0.9-1.9-1.2c-0.7-2.7,3.1-9.1,11.9-14.9
		c0.5,0.4,1.2,0.8,2,1C425.5,142.2,422.7,148.1,419,151.6z M429.7,157.4c-0.8,1.2-2,2.6-3.1,2c-2-1.1-3.2-6-2.2-9.6
		c2.4-3.4,4.1-7.5,4.7-10.4c0.2,0,0.3,0,0.5,0c0.1,0,0.2,0,0.3,0C431.1,142.8,433.7,151.4,429.7,157.4z M432.8,139
		C432.8,138.9,432.8,138.9,432.8,139C432.8,138.9,432.9,138.9,432.8,139L432.8,139z M442.8,153.7c0,0.1-0.1,0.3-0.7,0.5
		c-1.7,0.3-5.2-0.9-7.3-2.9c0.4-4.5-0.8-9-1.7-11.7C443.3,150,443,153.2,442.8,153.7z M451.1,149.2c-0.8,1.4-3.5,2.3-5.7,2
		c-1.1-3.3-4.5-7.8-10.2-13.6c0,0,0.1-0.1,0.1-0.1c3.5,1,8.2,2.8,12.8,6.3C449.7,145,452.2,147.3,451.1,149.2z"/>
</g>
</svg>
