<?xml version="1.0" encoding="utf-8"?>
<svg version="1.1" xmlns="http://www.w3.org/2000/svg" xmlns:xlink="http://www.w3.org/1999/xlink" x="0px" y="0px" viewBox="0 0 256 256" enable-background="new 0 0 256 256" xml:space="preserve">
<path fill="#e7bebe" d="M117.3,10.2C102,11.8,89.2,15.4,75.9,22C44.5,37.3,21.4,66,13.2,99.8c-2.2,8.9-2.9,14.6-3.1,25.2c-0.4,14,1,24.8,4.8,37.3c12.4,41.2,46.9,72.8,88.9,81.4c15.1,3.1,33.4,3.1,48.1,0c46.2-9.6,82.2-45.6,91.8-91.8c2.3-11.1,3-26.1,1.6-37.5C238.9,59.7,196.2,17,141.5,10.6C136.2,10,121.9,9.8,117.3,10.2z M187.4,87.6v6.6L157.6,110c-16.4,8.6-30,15.7-30.3,15.7c-0.2,0-13.6-7.1-29.6-15.7L68.5,94.3l-0.1-6.2c0-3.4,0-6.4,0.1-6.8c0.2-0.5,11.2-0.6,59.6-0.5l59.4,0.1L187.4,87.6L187.4,87.6z M97.7,122.7c16,8.6,29.3,15.6,29.5,15.6c0.3,0,13.6-6.9,29.7-15.3c16-8.4,29.5-15.5,30-15.6c0.7-0.3,0.8,1.3,0.8,29.7c0,20.5-0.2,30.6-0.5,31.9c-0.7,2.6-3.5,5.1-6.3,5.7c-3.1,0.6-102.3,0.7-105.6,0c-3.1-0.6-5.8-3-6.5-5.7c-0.5-1.9-0.8-61.8-0.3-61.8C68.6,107.1,81.8,114.1,97.7,122.7z"/>
</svg>